<?xml version="1.0" standalone="no"?><!DOCTYPE svg PUBLIC "-//W3C//DTD SVG 1.1//EN" "http://www.w3.org/Graphics/SVG/1.1/DTD/svg11.dtd"><svg t="1667871837089" class="icon" viewBox="0 0 1024 1024" version="1.1" xmlns="http://www.w3.org/2000/svg" p-id="11445" xmlns:xlink="http://www.w3.org/1999/xlink" width="200" height="200"><path d="M810.666667 341.333333l-170.666667 170.666667h128c0 141.44-114.56 256-256 256-43.306667 0-83.84-10.88-119.68-29.653333l-62.293333 62.293333C382.933333 833.706667 445.013333 853.333333 512 853.333333c188.586667 0 341.333333-152.746667 341.333333-341.333333h128l-170.666666-170.666667z m-554.666667 170.666667c0-141.44 114.56-256 256-256 43.306667 0 83.84 10.88 119.68 29.653333l62.293333-62.293333C641.066667 190.293333 578.986667 170.666667 512 170.666667 323.413333 170.666667 170.666667 323.413333 170.666667 512H42.666667l170.666666 170.666667 170.666667-170.666667h-128z" p-id="11446"></path></svg>