<?xml version="1.0" standalone="no"?><!DOCTYPE svg PUBLIC "-//W3C//DTD SVG 1.1//EN" "http://www.w3.org/Graphics/SVG/1.1/DTD/svg11.dtd"><svg t="1667872739451" class="icon" viewBox="0 0 1024 1024" version="1.1" xmlns="http://www.w3.org/2000/svg" p-id="24640" xmlns:xlink="http://www.w3.org/1999/xlink" width="200" height="200"><path d="M443.784 566.572H276.915c-15.328 0-27.775 12.392-27.775 27.829 0 15.328 12.447 27.83 27.775 27.83h166.869c15.382 0 27.83-12.502 27.83-27.83a27.744 27.744 0 0 0-27.83-27.83zM276.915 288.276H722.08c15.384 0 27.829-12.502 27.829-27.83a27.743 27.743 0 0 0-27.829-27.83H276.915c-15.328 0-27.775 12.393-27.775 27.83 0 15.328 12.447 27.83 27.775 27.83zM276.915 455.254H722.08c15.384 0 27.829-12.502 27.829-27.83a27.743 27.743 0 0 0-27.829-27.83H276.915c-15.328 0-27.775 12.393-27.775 27.83 0 15.328 12.447 27.83 27.775 27.83z" p-id="24641"></path><path d="M859.27 687.076l1.957 0.109v-84.63h0.057v-455.71c0-44.137-39.733-80.01-88.544-80.01H226.42c-48.757 0-88.544 35.874-88.544 80.01V821.93c0 44.136 39.678 80.01 88.49 80.01h354.502c32.286 33.808 77.564 55.225 127.95 55.225 97.731 0 177.305-79.63 177.305-177.415 0-34.08-10.11-65.66-26.852-92.674zM226.366 846.281c-17.828 0-32.83-11.143-32.83-24.351V146.844c0-13.207 15.11-24.351 32.884-24.351h546.32c17.828 0 32.884 11.144 32.884 24.351v442.012h-0.054v42.615c-27.883-18.263-61.04-29.025-96.753-29.025-97.784 0-177.304 79.521-177.304 177.305 0 23.536 4.783 45.93 13.153 66.531h-318.3z m482.452 55.225c-67.073 0-121.645-54.681-121.645-121.755 0-67.073 54.572-121.645 121.645-121.645 67.075 0 121.648 54.572 121.648 121.645 0 67.074-54.573 121.755-121.648 121.755z" p-id="24642"></path><path d="M768.39 729.527l-82.13 82.076-42.777-42.723a10.826 10.826 0 0 0-15.328 0 10.826 10.826 0 0 0 0 15.328l50.442 50.441a10.826 10.826 0 0 0 15.328 0l89.793-89.794a10.823 10.823 0 0 0 0-15.328 10.825 10.825 0 0 0-15.327 0z" p-id="24643"></path></svg>