<?xml version="1.0" standalone="no"?><!DOCTYPE svg PUBLIC "-//W3C//DTD SVG 1.1//EN" "http://www.w3.org/Graphics/SVG/1.1/DTD/svg11.dtd"><svg t="1667872805806" class="icon" viewBox="0 0 1024 1024" version="1.1" xmlns="http://www.w3.org/2000/svg" p-id="25599" xmlns:xlink="http://www.w3.org/1999/xlink" width="200" height="200"><path d="M105.312 466a26.16 26.16 0 0 0 26.312-26.288v-21.424c0-1.792 0.6-4.888 0.6-7.368H875c0.6 3.728 0.6 7.368 0.6 10.448v80.224a268.76 268.76 0 0 1 53.816 31.32l0.064-0.064v-110.88c0-33.584-11.608-83.112-27.512-112.416l-72.776-140.056c-17.704-34.32-62.368-61.832-101.488-61.832H281.368c-38.512 0-83.136 26.904-101.48 61.12l-72.784 136.96C91.2 335.088 79 384.68 79 418.28v21.424A26.128 26.128 0 0 0 105.312 466z m451.544 438.408H158.584c-14.704 0-26.304-12.264-26.304-26.336v-32.4a26.16 26.16 0 0 0-26.312-26.312 26.128 26.128 0 0 0-26.312 26.312v32.992a79.24 79.24 0 0 0 79.416 79.488h451.336a271.384 271.384 0 0 1-53.552-53.744z m53.64 53.8v-0.056h-0.08zM143.248 767.016c7.304 0 13.888-3.016 18.632-7.824a26.08 26.08 0 0 0 0-37.184l-45.744-45.824h156.328A26.4 26.4 0 0 0 298.632 650a26.048 26.048 0 0 0-26.176-26.296H116.192l45.752-45.784a26.12 26.12 0 0 0 0-37.184 26.12 26.12 0 0 0-18.64-7.8 26.08 26.08 0 0 0-18.624 7.8L33.136 631.04c-1.848 1.2-2.448 3.056-3.648 4.32 0 0.608 0 1.192-0.592 1.792 0 1.24-0.672 1.848-1.272 3.032 0 0.672-0.584 1.872-0.584 2.472 0 0.584-0.608 1.848-0.608 2.464-0.592 1.824-0.592 3.616-0.592 5.408h-0.008c0 1.928 0 3.728 0.6 3.728 0 0.584 0.608 1.848 0.608 2.44 0 0.592 0 1.8 0.584 2.384 0 1.264 0.6 1.856 1.208 3.12 0.592 0.608 0.592 1.2 1.176 1.8 1.264 1.848 2.528 3.056 3.704 4.312l90.928 90.88a26.064 26.064 0 0 0 18.608 7.824z m605.128-68.264h77.096v24.968h-77.096z m0-39.408h77.096v24.968h-77.096z" p-id="25600"></path><path d="M769.184 537.576c-1.76-0.04-3.528-0.056-5.304-0.056-117.44 0-212.64 95.2-212.64 212.648 0 117.432 95.2 212.656 212.64 212.656 1.776 0 3.544-0.04 5.056-0.056h0.248c114.992-2.816 207.352-96.944 207.352-212.6 0-115.648-92.36-209.752-207.352-212.592z m92.648 220.744c-14.168 5.68-27.968 11.328-41.392 16.864a2201.256 2201.256 0 0 1 39.424 24.96l-10.96 15.336c-23.936-17.368-52.264-36.432-84.96-57.168l8.968-12.032a13389.125 13389.125 0 0 1 32.848 19.912 1009.248 1009.248 0 0 0 44.904-22.968l11.168 15.096z m-130.096 31.544v-145.4h110.16v99.848h-16.424v-5.704h-77.096v57.184c11.68-4.544 25.92-10.472 42.704-17.76 0.16 5.984 0.512 11.752 1.104 17.288a509.856 509.856 0 0 0-42.04 18.184c-4.096 2.192-8.176 4.744-12.272 7.672l-12.488-16.432c4.232-4.08 6.352-9.032 6.352-14.88zM677.648 639.2c7.448 9.048 17.664 22.848 30.656 41.384L692.76 691.52c-11.824-18.528-21.544-32.848-29.136-42.912l14.024-9.408z m184.608 205.632c-42.488 0.304-84.016 0-124.6-0.872-24.528-0.432-41.904-8.984-52.128-25.624-5.992 5.56-14.752 15.32-26.28 29.352l-8.984-18.184a1917.64 1917.64 0 0 1 28.048-26.72v-73.808H652.24v-16.208h42.92v93.536c9.048 14.152 24.088 21.52 45.12 22.096 41.464 0.592 84.168 0.288 128.12-0.848-1.608 4.8-3.656 10.56-6.144 17.28z" p-id="25601"></path></svg>