<?xml version="1.0" standalone="no"?><!DOCTYPE svg PUBLIC "-//W3C//DTD SVG 1.1//EN" "http://www.w3.org/Graphics/SVG/1.1/DTD/svg11.dtd"><svg t="1667873194608" class="icon" viewBox="0 0 1024 1024" version="1.1" xmlns="http://www.w3.org/2000/svg" p-id="44277" xmlns:xlink="http://www.w3.org/1999/xlink" width="200" height="200"><path d="M370.623147 767.638187c10.550613 0 20.54144 1.942187 29.979306 5.829973a79.322453 79.322453 0 0 1 24.978774 16.233813c7.2192 6.94272 12.76928 15.131307 16.653653 24.562347 3.887787 9.44128 5.829973 19.43552 5.829973 29.98272 0 10.543787-1.942187 20.54144-5.829973 29.97248-3.887787 9.44128-9.437867 17.626453-16.653653 24.562347-7.215787 6.935893-15.54432 12.4928-24.978774 16.653653-9.437867 4.16768-19.428693 6.242987-29.979306 6.242987-11.10016 0-21.230933-2.075307-30.39232-6.242987a87.261867 87.261867 0 0 1-24.562347-16.653653c-7.2192-6.935893-12.76928-15.12448-16.653653-24.562347-3.887787-9.434453-5.829973-19.428693-5.829974-29.97248 0-10.5472 1.942187-20.544853 5.829974-29.98272a71.417173 71.417173 0 0 1 16.653653-24.562347 80.718507 80.718507 0 0 1 24.562347-16.233813c9.161387-3.887787 19.29216-5.829973 30.39232-5.829973z m346.39872 1.66912c10.5472 0 20.677973 1.938773 30.388906 5.81632 9.714347 3.8912 18.039467 9.304747 24.978774 16.24064 6.939307 6.94272 12.489387 15.13472 16.657066 24.56576 4.164267 9.44128 6.242987 19.421867 6.242987 29.969066 0 10.560853-2.07872 20.544853-6.242987 29.98272-4.16768 9.434453-9.71776 17.626453-16.657066 24.569174-6.939307 6.93248-15.26784 12.485973-24.978774 16.653653-9.714347 4.160853-19.841707 6.242987-30.388906 6.242987s-20.544853-2.082133-29.979307-6.242987c-9.437867-4.16768-17.626453-9.721173-24.562347-16.653653-6.935893-6.94272-12.489387-15.138133-16.653653-24.569174-4.164267-9.44128-6.242987-19.421867-6.242987-29.98272 0-10.5472 2.07872-20.5312 6.242987-29.969066 4.164267-9.434453 9.71776-17.62304 16.653653-24.56576 6.935893-6.935893 15.127893-12.34944 24.562347-16.24064 9.437867-3.877547 19.43552-5.81632 29.979307-5.81632z m139.88864-520.762027c15.551147 0 27.620693 2.082133 36.222293 6.2464 8.605013 4.164267 14.71488 9.301333 18.322773 15.407787 3.60448 6.106453 5.2736 12.629333 4.993707 19.56864-0.273067 6.94272-1.24928 12.905813-2.914987 17.902933s-59.122347 241.82784-62.45376 252.37504c-7.215787 22.203733-16.377173 37.614933-27.480746 46.21312-11.10016 8.605013-24.702293 12.905813-40.802987 12.905813H349.054293l12.489387 47.633067h416.259413c26.647893 0 40.598187 11.39712 39.970134 34.136747-0.5632 20.415147-23.59296 30.5664-39.140694 30.5664H342.31296c-11.10016 0-20.39808-2.495147-27.89376-7.499094-7.492267-4.993707-13.738667-11.516587-18.735787-19.561813a118.872747 118.872747 0 0 1-12.07296-26.231467c-3.054933-9.437867-5.410133-18.312533-7.079253-26.641066-0.55296-3.33824-2.082133-11.38688-4.57728-24.152747-2.49856-12.765867-5.553493-28.726613-9.161387-47.878827l-12.07296-64.116053a35860.0704 35860.0704 0 0 1-13.325653-71.195307c-10.5472-56.067413-25.893547-173.131093-39.215787-241.967786H135.724373c-8.32512 0-15.26784-2.082133-20.81792-6.2464a54.3744 54.3744 0 0 1-13.74208-14.987947c-4.66944-7.550293-3.959467-7.12704-4.952746-11.902293-1.385813-6.659413-1.20832-5.946027-1.20832-11.502934 0-11.10016 3.74784-13.43488 11.240106-20.650666s17.62304-10.82368 30.39232-10.82368h84.10112c11.103573 0 19.985067 1.662293 26.647894 4.993706 6.659413 3.334827 11.936427 7.49568 15.8208 12.489387 3.884373 4.99712 6.662827 10.27072 8.328533 15.824213 1.662293 5.55008 3.054933 10.27072 4.164267 14.15168 1.109333 4.44416 2.218667 10.69056 3.331413 18.735787 1.112747 8.04864 2.22208 16.237227 3.331413 24.56576 1.665707 9.987413 3.331413 20.534613 4.993707 31.638187h569.555627z"  p-id="44278"></path></svg>