<?xml version="1.0" standalone="no"?><!DOCTYPE svg PUBLIC "-//W3C//DTD SVG 1.1//EN" "http://www.w3.org/Graphics/SVG/1.1/DTD/svg11.dtd"><svg t="1672139943199" class="icon" viewBox="0 0 1024 1024" version="1.1" xmlns="http://www.w3.org/2000/svg" p-id="2502" xmlns:xlink="http://www.w3.org/1999/xlink" width="200" height="200"><path d="M769.896 79C871.574 79 954 161.426 954 263.104v517.792C954 882.574 871.574 965 769.896 965H252.104C150.426 965 68 882.574 68 780.896V263.104C68 161.426 150.426 79 252.104 79h517.792z m-20.712 669.678h-478.67c-16.522 0-29.917 13.394-29.917 29.917 0 16.522 13.395 29.917 29.917 29.917h478.67c16.523 0 29.917-13.395 29.917-29.917 0-16.523-13.394-29.917-29.917-29.917z m-237.033-513.19c-16.523 0-29.917 13.395-29.917 29.917v320.428l-87.941-89.309c-13.358-13.564-35.182-13.733-48.747-0.375-0.126 0.124-0.252 0.25-0.376 0.375-13.626 13.838-13.626 36.05 0 49.887l139.693 141.864c6.678 6.782 15.474 10.215 24.295 10.283h0.311c8.84 0.073 17.697-3.233 24.468-9.902l0.381-0.381L674.011 546.41c13.626-13.838 13.626-36.05 0-49.887-0.124-0.126-0.25-0.251-0.376-0.375-13.43-13.224-34.954-13.191-48.343-0.028l-0.404 0.403-82.821 84.11V265.404c0-16.522-13.394-29.917-29.916-29.917z"  p-id="2503"></path></svg>