<?xml version="1.0" standalone="no"?><!DOCTYPE svg PUBLIC "-//W3C//DTD SVG 1.1//EN" "http://www.w3.org/Graphics/SVG/1.1/DTD/svg11.dtd"><svg t="1668601191307" class="icon" viewBox="0 0 1024 1024" version="1.1" xmlns="http://www.w3.org/2000/svg" p-id="6477" xmlns:xlink="http://www.w3.org/1999/xlink" width="200" height="200"><path d="M872.2 589.1c-96-70.5-230.9-49.8-301.4 46.2-66.9 91.1-52.1 218.3 33.9 291.7H184.2c-38.1 0-69-30.9-69-69V168c0-38.1 30.9-69 69-69h366v287c0 19.1 15.4 34.5 34.5 34.5h287.6l-0.1 168.6z m0-220.3H601.9V99h1l269.3 269.3v0.5zM210.1 306c-14.3 0-25.9 11.6-25.9 25.9s11.6 25.9 25.9 25.9h224.3c14.3 0 25.9-11.6 25.9-25.9s-11.7-25.9-26-25.9H210.1z m0 103.5c-14.3 0-25.9 11.6-25.9 25.9s11.6 25.9 25.9 25.9h224.3c14.3 0 25.9-11.6 25.9-25.9s-11.6-25.9-25.9-25.9H210.1z m534.7 189.8c90.5 0 163.9 73.3 163.9 163.8 0 90.5-73.3 163.9-163.8 163.9h-0.1C654.3 927 581 853.6 581 763.1s73.3-163.9 163.8-163.8z m71.7 105.1L737.4 804l-63.3-47.5c-11.4-8.6-27.6-6.3-36.2 5.1-8.6 11.4-6.3 27.6 5.1 36.2l83.4 62.7c11.2 8.4 27.1 6.4 35.8-4.6L857 736.6c9.2-11 7.7-27.3-3.3-36.4-11-9.2-27.3-7.7-36.4 3.3-0.3 0.3-0.6 0.6-0.8 0.9z" p-id="6478"></path></svg>